<svg width="300" height="300" viewBox="0 0 300 300" fill="none" xmlns="http://www.w3.org/2000/svg">
<path d="M300 107.729L261.861 42.2705C250.014 49.0338 200.514 85.6683 170.084 115.459C180.876 74.3961 188.098 13.5266 188.098 0H111.902C111.902 13.5266 119.124 74.4767 129.916 115.459C99.4861 85.6683 49.9053 49.0338 38.139 42.2705L0 107.729C11.8474 114.493 68.5691 138.808 109.792 150C68.5691 161.272 11.8474 185.507 0 192.271L38.139 257.729C49.9865 250.966 99.4861 214.332 129.916 184.541C119.124 225.604 111.902 286.473 111.902 300H188.098C188.098 286.473 180.876 225.523 170.084 184.541C200.514 214.332 250.095 250.966 261.861 257.729L300 192.271C288.153 185.507 231.431 161.192 190.208 150C231.431 138.728 288.153 114.493 300 107.729Z" fill="#FF4D08"/>
</svg>
